<svg version="1.2" xmlns="http://www.w3.org/2000/svg" viewBox="0 0 813 343" width="813" height="343"><style>.a{fill:#6ec63b}.b{fill:#3c3c3b}</style><path class="a" d="m302.8 236.5v-12.9c0-3.2 1.1-6.3 3.1-8.8l71.4-89.2c3.3-4.1 0.3-10.3-5-10.3h-60.4c-3.6 0-6.4-2.9-6.4-6.4v-17.8c0-3.5 2.8-6.4 6.4-6.4h115.5c3.5 0 6.4 2.9 6.4 6.4v11.5c0 4.3-1.5 8.4-4.1 11.7l-70.2 87.4c-3.3 4.2-0.4 10.4 5 10.4h64.2c3.6 0 6.4 2.9 6.4 6.4v18c0 3.5-2.8 6.4-6.4 6.4h-119.5c-3.6 0-6.4-2.9-6.4-6.4z"/><path class="b" d="m638.5 88.3v24.3c0 2-1.6 3.6-3.6 3.6h-71.6c-1.9 0-3.5 1.6-3.5 3.5v25.5c0 2 1.6 3.6 3.5 3.6h63.7c2 0 3.6 1.5 3.6 3.5v23c0 2-1.6 3.5-3.6 3.5h-63.7c-1.9 0-3.5 1.6-3.5 3.6v25.7c0 2 1.6 3.6 3.5 3.6h74.1c2 0 3.6 1.5 3.6 3.5v24.1c0 2-1.6 3.6-3.6 3.6h-109.4c-1.9 0-3.5-1.6-3.5-3.6v-151c0-2 1.6-3.6 3.5-3.6h106.9c2 0 3.6 1.6 3.6 3.6z"/><path fill-rule="evenodd" class="b" d="m790.4 105.4q22.6 20.7 22.6 57.6 0 36.9-22 58.4-22.1 21.5-67.3 21.5h-50.6c-1.9 0-3.5-1.6-3.5-3.6v-151c0-2 1.6-3.6 3.5-3.6h52.4q42.3 0 64.9 20.7zm-25.9 94q13-12.2 13-35.5 0-23.3-13-35.8-13-12.6-39.9-12.6h-16.2c-1.9 0-3.5 1.6-3.5 3.6v89c0 2 1.6 3.6 3.5 3.6h18.9q24.2 0 37.2-12.3z"/><rect class="a" x="460" y="84.7" width="35.3" height="118.4" rx="6.7"></rect><rect class="a" x="460" y="214.3" width="35.3" height="28.6" rx="3.5"></rect><rect class="a" x="243.1" y="124.4" width="35.3" height="118.4" rx="6.7"></rect><rect class="a" x="243.1" y="84.7" width="35.3" height="28.6" rx="3.5"></rect><path class="b" d="m265.1 273.2v6.3h-14.9v7h14.2v6.3h-14.2v12.6h-7.1v-32.2z"/><path fill-rule="evenodd" class="b" d="m290.9 305.4h-6.5v-3q-2.7 3.4-6.6 3.4-4 0-6.6-2.3-2.7-2.3-2.7-6.1 0-3.8 2.8-5.7 2.7-1.9 7.5-1.9h5.2v-0.1q0-3.9-4.2-3.9-1.8 0-3.8 0.7-2 0.7-3.4 1.7l-3.1-4.4q4.9-3.6 11.1-3.6 4.6 0 7.4 2.3 2.9 2.2 2.9 7.1zm-7-9.4v-1.2h-4.3q-4.2 0-4.2 2.6 0 1.3 1 2 1 0.7 2.9 0.7 1.8 0 3.2-1.1 1.4-1.1 1.4-3z"/><path class="b" d="m309 299.6q3.5 0 6.2-3.4l4.1 4.6q-4.7 5-10.3 5-5.6 0-9.4-3.6-3.9-3.5-3.9-9.2 0-5.6 3.9-9.2 3.9-3.6 9.2-3.6 2.7 0 5.5 1.1 2.7 1.1 4.8 3.3l-3.6 4.7q-1.2-1.4-2.9-2.2-1.8-0.8-3.5-0.8-2.7 0-4.6 1.8-2 1.7-2 4.9 0 3.2 2 4.9 1.9 1.7 4.5 1.7z"/><path class="b" d="m324.5 277.5q-1.2-1.2-1.2-2.9 0-1.7 1.2-2.9 1.2-1.1 2.9-1.1 1.7 0 2.9 1.1 1.1 1.2 1.1 2.9 0 1.7-1.1 2.9-1.2 1.2-2.9 1.2-1.7 0-2.9-1.2zm6.3 27.9h-6.9v-24.8h6.9z"/><path class="b" d="m344.3 305.4h-6.9v-34.1h6.9z"/><path class="b" d="m351.4 277.5q-1.2-1.2-1.2-2.9 0-1.7 1.2-2.9 1.2-1.1 2.9-1.1 1.7 0 2.8 1.1 1.2 1.2 1.2 2.9 0 1.7-1.2 2.9-1.1 1.2-2.8 1.2-1.7 0-2.9-1.2zm6.3 27.9h-6.9v-24.8h6.9z"/><path class="b" d="m372.5 285.6v11.1q0 1.4 0.7 2.2 0.8 0.8 1.8 0.8 1.9 0 3.2-1.7l2.6 4.8q-3.2 3-6.8 3-3.5 0-6-2.4-2.5-2.3-2.5-6.4v-11.4h-2.9v-5h2.9v-7.4h7v7.4h6v5z"/><path fill-rule="evenodd" class="b" d="m405.5 305.4h-6.5v-3q-2.6 3.4-6.6 3.4-3.9 0-6.6-2.3-2.6-2.3-2.6-6.1 0-3.8 2.7-5.7 2.8-1.9 7.6-1.9h5.1v-0.1q0-3.9-4.2-3.9-1.8 0-3.8 0.7-2 0.7-3.3 1.7l-3.1-4.4q4.8-3.6 11.1-3.6 4.5 0 7.4 2.3 2.8 2.2 2.8 7.1zm-6.9-9.4v-1.2h-4.4q-4.1 0-4.1 2.6 0 1.3 1 2 1 0.7 2.8 0.7 1.9 0 3.3-1.1 1.4-1.1 1.4-3z"/><path class="b" d="m418.7 291.6v13.8h-6.9v-24.8h6.9v2.8q3.2-3.2 7.1-3.2 3.9 0 6.5 2.8 2.7 2.8 2.7 7.4v15h-6.9v-14q0-5.7-4.2-5.7-2.1 0-3.6 1.5-1.6 1.5-1.6 4.4z"/><path fill-rule="evenodd" class="b" d="m451.1 305.8q-4.4 0-7.8-3.8-3.5-3.7-3.5-9.2 0-5.5 3.4-9.1 3.4-3.5 7.9-3.5 4.5 0 7.3 3.2v-12.1h6.9v34.1h-6.9v-3.3q-2.9 3.7-7.3 3.7zm-4.3-12.7q0 3 1.8 4.9 1.8 1.9 4.2 1.9 2.4 0 4-1.9 1.7-1.9 1.7-5 0-3-1.7-5-1.6-2-4.1-2-2.4 0-4.2 2.1-1.7 2-1.7 5z"/><path fill-rule="evenodd" class="b" d="m496.6 293q0 5.4-3.7 9.1-3.7 3.7-9.4 3.7-5.6 0-9.3-3.7-3.8-3.7-3.8-9.1 0-5.4 3.8-9.1 3.7-3.7 9.3-3.7 5.7 0 9.4 3.7 3.7 3.7 3.7 9.1zm-19.2 0q0 3.1 1.7 5 1.7 1.9 4.4 1.9 2.7 0 4.5-1.9 1.7-1.9 1.7-5 0-3-1.7-4.9-1.8-2-4.5-2-2.7 0-4.4 2-1.7 1.9-1.7 4.9z"/><path class="b" d="m522.1 285.6v11.1q0 1.4 0.8 2.2 0.7 0.8 1.7 0.8 1.9 0 3.3-1.7l2.5 4.8q-3.2 3-6.7 3-3.6 0-6.1-2.4-2.4-2.3-2.4-6.4v-11.4h-2.9v-5h2.9v-7.4h6.9v7.4h6v5z"/><path class="b" d="m550.1 294v-13.4h6.9v24.8h-6.9v-3.3q-2.6 3.7-6.7 3.7-4 0-6.8-2.6-2.8-2.5-2.8-7.6v-15h7v13.5q0 5.7 4.2 5.7 2.1 0 3.6-1.5 1.5-1.5 1.5-4.3z"/><path class="a" d="m599.6 273.2v6.4h-16v6.7h14.4v6.1h-14.4v6.7h16.5v6.3h-23.7v-32.2z"/><path fill-rule="evenodd" class="a" d="m615.2 305.8q-4.4 0-7.9-3.8-3.4-3.7-3.4-9.2 0-5.5 3.3-9.1 3.4-3.5 7.9-3.5 4.5 0 7.4 3.2v-12.1h6.9v34.1h-6.9v-3.3q-2.9 3.7-7.3 3.7zm-4.4-12.7q0 3 1.8 4.9 1.8 1.9 4.2 1.9 2.4 0 4.1-1.9 1.7-1.9 1.7-5 0-3-1.7-5-1.7-2-4.1-2-2.5 0-4.2 2.1-1.8 2-1.8 5z"/><path class="a" d="m651.9 294v-13.4h6.9v24.8h-6.9v-3.3q-2.6 3.7-6.7 3.7-4 0-6.8-2.6-2.8-2.5-2.8-7.6v-15h7v13.5q0 5.7 4.2 5.7 2 0 3.6-1.5 1.5-1.5 1.5-4.3z"/><path class="a" d="m677.2 299.6q3.5 0 6.2-3.4l4.1 4.6q-4.8 5-10.3 5-5.6 0-9.4-3.6-3.9-3.5-3.9-9.2 0-5.6 3.9-9.2 3.9-3.6 9.2-3.6 2.7 0 5.4 1.1 2.8 1.1 4.9 3.3l-3.6 4.7q-1.2-1.4-3-2.2-1.7-0.8-3.4-0.8-2.7 0-4.7 1.8-1.9 1.7-1.9 4.9 0 3.2 1.9 4.9 2 1.7 4.6 1.7z"/><path fill-rule="evenodd" class="a" d="m713.2 305.4h-6.5v-3q-2.7 3.4-6.6 3.4-4 0-6.6-2.3-2.7-2.3-2.7-6.1 0-3.8 2.8-5.7 2.7-1.9 7.5-1.9h5.2v-0.1q0-3.9-4.2-3.9-1.8 0-3.8 0.7-2 0.7-3.4 1.7l-3.1-4.4q4.9-3.6 11.1-3.6 4.6 0 7.4 2.3 2.9 2.2 2.9 7.1zm-7-9.4v-1.2h-4.3q-4.2 0-4.2 2.6 0 1.3 1 2 1 0.7 2.9 0.7 1.8 0 3.2-1.1 1.4-1.1 1.4-3z"/><path class="a" d="m731.3 299.6q3.5 0 6.2-3.4l4.1 4.6q-4.7 5-10.3 5-5.6 0-9.4-3.6-3.9-3.5-3.9-9.2 0-5.6 3.9-9.2 3.9-3.6 9.3-3.6 2.6 0 5.4 1.1 2.7 1.1 4.8 3.3l-3.6 4.7q-1.2-1.4-2.9-2.2-1.8-0.8-3.5-0.8-2.7 0-4.6 1.8-2 1.7-2 4.9 0 3.2 2 4.9 1.9 1.7 4.5 1.7z"/><path class="a" d="m746.8 277.5q-1.2-1.2-1.2-2.9 0-1.7 1.2-2.9 1.2-1.1 2.9-1.1 1.7 0 2.9 1.1 1.1 1.2 1.1 2.9 0 1.7-1.1 2.9-1.2 1.2-2.9 1.2-1.7 0-2.9-1.2zm6.3 27.9h-6.9v-24.8h6.9z"/><path fill-rule="evenodd" class="a" d="m784.4 293q0 5.4-3.7 9.1-3.7 3.7-9.4 3.7-5.6 0-9.3-3.7-3.7-3.7-3.7-9.1 0-5.4 3.7-9.1 3.7-3.7 9.3-3.7 5.7 0 9.4 3.7 3.7 3.7 3.7 9.1zm-19.2 0q0 3.1 1.7 5 1.8 1.9 4.4 1.9 2.7 0 4.5-1.9 1.7-1.9 1.7-5 0-3-1.7-4.9-1.8-2-4.5-2-2.6 0-4.4 2-1.7 1.9-1.7 4.9zm8.7-15.7h-6.5l5.8-8.2 7.1 3z"/><path class="a" d="m796.4 291.6v13.8h-6.9v-24.8h6.9v2.8q3.1-3.2 7-3.2 3.9 0 6.6 2.8 2.6 2.8 2.6 7.4v15h-6.9v-14q0-5.7-4.1-5.7-2.1 0-3.7 1.5-1.5 1.5-1.5 4.4z"/><path fill-rule="evenodd" class="b" d="m186.8 264.3c-1.1 7.6-6.1 12.2-11.2 17.2l-17.9 16.9c-10 9.5-30.4 28.2-30.6 28.4-1.3 1.3-2.9 2.6-4.5 3.7-10.6 7.8-21.8 11.8-33.5 11.8-3.4 0-7-0.3-10.5-1-34.1-6.8-61-44-68.4-55.2q-0.6-0.9-1.1-1.8c-0.5-0.7-0.8-1.2-0.9-1.4l-0.4-0.6 0.1-0.1c-3.4-6.8-4.4-14.9-3-24.1 1.2-8 3.1-16 4.9-23.7 0.8-3.6 1.7-7.3 2.5-11q0.8-3.6 1.6-7.3c1.8-7.5 3.6-15.4 4.3-23.1 0.8-9.5-0.6-18.9-4.1-27.2-1.6-3.8-3.5-7.5-5.3-11.1-2.8-5.5-5.6-11.2-7.6-17.1-2.8-8.1 0.3-16.3 7.7-20.8 7.7-4.6 17.6-5.4 25.3-2 8.3 3.7 13.2 11.1 17.9 18.2l0.4 0.7c9.1 13.6 15.3 26.8 19.2 40.1l5.1-4.9c9.2-8.7 18.7-17.8 28.1-26.5q9.6-8.9 19.2-17.7 2.6-2.4 5.2-4.9c4.4-4.3 9.1-8.8 14.2-12.3 6.2-4.3 13.5-5.9 20.4-4.5 6.5 1.4 12.7 6.1 16.4 12.7 3.5 6.2 4 13.7 1.3 20.3-2.9 6.9-8.3 11.9-13.6 16.7q-1.1 0.9-2.1 1.9-12.4 11.4-24.8 22.8l-7.8 7.2c3.7 2 8 5 10.9 9.5 3.2 5.1 3.2 11.4 2.9 15.8 4.7 1.5 11.2 4.2 15.2 9.8 3.1 4.3 4.4 9.8 4.3 17.2 5.9 0.9 10.4 3.2 13.8 7 4.9 5.4 7.4 13.4 6.4 20.4zm-66.2 53.1c10.7-9.8 21.3-19.8 29.3-27.4l15-14.2c0.8-0.8 1.7-1.6 2.6-2.4 3.4-2.9 7.2-6.2 7.9-10.4 0.7-3.7-0.8-8.4-3.5-11.4-3-3.3-7.2-3.7-11.6-3.8-1.5-0.1-3-0.8-4.1-2-1-1.2-1.5-2.6-1.4-4 0.2-2.4 0.3-4.2 0.4-5.9q0-1.3-0.1-2.6c0-0.3 0-0.5 0-0.6l-0.1-0.6c-0.2-1.1-0.5-2.4-0.9-3.7q0 0 0 0c0 0-0.1-0.2-0.2-0.5-0.1-0.2-0.2-0.5-0.3-0.6q-0.1-0.2-0.2-0.4l-0.4-0.6c0 0-0.1-0.2-0.3-0.3-0.2-0.3-0.5-0.6-0.6-0.7q-0.2-0.3-0.4-0.5l-0.3-0.2q-1.5-1.2-3.3-2c-0.1-0.1-0.3-0.2-0.6-0.3-0.2-0.1-0.5-0.3-0.6-0.3q-1.2-0.5-2.4-0.9c-1.6-0.5-3.2-1-5.3-1.5-2.4-0.6-4.4-3.4-4.1-5.8 0.5-3.5 0.8-6.4 0.6-9.3q-0.1-0.5-0.1-0.9-0.1-0.6-0.3-1.1l-0.1-0.6q-0.1-0.2-0.1-0.3 0-0.1-0.1-0.3-0.3-0.6-0.7-1.3v-0.1q-0.1-0.2-0.2-0.3-0.2-0.2-0.4-0.4-0.5-0.7-1.1-1.3-0.3-0.3-0.6-0.5l-0.2-0.2q-0.8-0.6-1.6-1.2c-3-1.9-6.2-3.5-8.6-4.6-2.1-1-3.6-2.8-3.9-4.9-0.3-1.8 0.4-3.5 1.8-4.8l13.6-12.5q13.2-12.2 26.4-24.4 1.1-1 2.2-1.9c4.2-3.7 8.4-7.5 9.8-12.8 1.1-4.4-0.4-9-4.2-12.6-3.3-3.2-7.7-4.3-12.2-3-5 1.4-8.9 5.2-12.8 8.9q-1.4 1.4-2.8 2.7c-24.3 22.3-47.6 44.3-67.2 62.9-1.4 1.4-3.6 1.8-5.7 1.2-2-0.7-3.4-2.2-3.8-4.2-3.1-16.1-10.1-31.8-22.1-49.4-3.7-5.5-7.5-11.1-14.3-12.2q-1.2-0.2-2.4-0.2c-2.7 0-5.1 0.7-6.8 1.3-1.6 0.7-2.9 1.3-3.8 2.1-0.6 0.5-0.7 0.7-1 1.1-0.3 0.4-0.4 0.7-0.5 0.8-0.9 2 0.3 5 1.2 7.1 1.7 3.7 3.5 7.7 5.9 12.7l0.9 1.9c3.6 7.7 7.4 15.6 8.9 24.2 1.6 8.6 1.4 17.7-0.6 27.7-2 10.1-4.2 20.3-6.1 29q-0.9 4.3-2 8.6c-1.5 6.2-3 12.5-3.9 18.8-1.1 7.7-0.4 13.4 2.1 18 0.2 0.4 0.7 1.2 1.5 2.3l0.1 0.2q0.4 0.4 0.7 1c6.8 10 31.4 43.4 60.2 49.1 10.2 2 20.1 0.2 29.5-5.1 1.1-0.6 1.9-1.2 2.8-1.8 1.6-1.2 2.7-1.9 3.5-2.5 2.2-1.6 2.3-1.6 4-3.3zm31.4-93.2z"/><path class="a" d="m180.7 55.4l-0.3 7.1c0 0.8-0.7 1.4-1.4 1.4l-38.1-1.4c-0.8-0.1-1.3-0.7-1.3-1.5l0.3-7.1c0-0.8 0.6-1.4 1.4-1.4l38.1 1.5c0.7 0 1.3 0.7 1.3 1.4z"/><path class="a" d="m137.2 49.9l-4.8-5.2c-0.5-0.6-0.5-1.5 0-2l28.1-25.8c0.5-0.5 1.4-0.4 1.9 0.1l4.8 5.3c0.6 0.5 0.6 1.4 0 1.9l-28.1 25.8c-0.5 0.5-1.4 0.5-1.9-0.1z"/><path class="a" d="m131.4 2l-1.4 38.1c0 0.7-0.7 1.3-1.5 1.3l-7.1-0.3c-0.8 0-1.4-0.7-1.3-1.4l1.4-38.1c0-0.8 0.7-1.3 1.5-1.3l7.1 0.3c0.8 0 1.4 0.6 1.3 1.4z"/><path class="a" d="m102.1 105.3l19.9-18.3c0.8-0.7 2.1-0.5 3 0.5l5.9 6.4c0.9 0.9 1 2.3 0.2 3l-34.5 31.8c-0.8 0.7-2.1 0.5-3-0.5l-5.1-5.4c-0.4-0.5-0.6-0.9-0.7-1.5l-7.6-50.8c-0.3-1.8-2.5-2.9-3.7-1.8l-18.5 17c-0.8 0.8-2.2 0.6-3-0.4l-5.9-6.4c-0.9-0.9-1-2.3-0.2-3l33.1-30.5c0.8-0.7 2.1-0.5 3 0.4l5.1 5.5c0.3 0.4 0.6 0.9 0.7 1.4l7.6 50.8c0.3 1.8 2.5 2.9 3.7 1.8z"/><path class="a" d="m88.4 39.6l7.3-6.7c1.2-1.1 3.1-1 4.2 0.2l32 34.8c1.1 1.2 1 3.1-0.2 4.2l-7.3 6.7c-1.2 1.1-3.1 1-4.2-0.2l-32-34.8c-1.1-1.2-1-3.1 0.2-4.2z"/><path class="a" d="m144.5 84.6l-8.7 8c-0.8 0.8-2.1 0.7-2.8-0.1l-6-6.5c-0.8-0.8-0.7-2.1 0.1-2.8l8.7-8.1c0.8-0.7 2.1-0.7 2.8 0.1l6.1 6.6c0.7 0.8 0.6 2-0.2 2.8z"/><path class="a" d="m90.8 134l-7.3 6.7c-1.2 1.1-3.1 1-4.2-0.2l-32-34.8c-1.1-1.2-1-3.1 0.2-4.3l7.3-6.7c1.2-1.1 3.1-1 4.2 0.2l32 34.8c1.1 1.3 1 3.2-0.2 4.3z"/><path class="a" d="m34.7 88.9l8.7-8c0.8-0.7 2.1-0.7 2.8 0.1l6 6.5c0.8 0.9 0.7 2.1-0.1 2.9l-8.7 8c-0.9 0.8-2.1 0.7-2.9-0.1l-6-6.5c-0.7-0.8-0.7-2.1 0.2-2.9z"/></svg>