<svg version="1.2" xmlns="http://www.w3.org/2000/svg" viewBox="0 0 796 335" width="796" height="335"><style>.a{fill:#6ec63b}.b{fill:#f6f6f6}</style><path class="a" d="m296 231.6v-12.6c0-3.2 1.1-6.2 3-8.6l69.9-87.3c3.3-4.1 0.4-10.1-4.9-10.1h-59.1c-3.4 0-6.2-2.8-6.2-6.3v-17.4c0-3.4 2.8-6.2 6.2-6.2h113c3.5 0 6.3 2.8 6.3 6.2v11.3c0 4.1-1.4 8.2-4 11.4l-68.7 85.6c-3.2 4-0.3 10.1 4.9 10.1h62.9c3.4 0 6.2 2.8 6.2 6.3v17.6c0 3.4-2.8 6.2-6.2 6.2h-117c-3.5 0-6.3-2.8-6.3-6.2z"/><path class="b" d="m624.5 86.6v23.8c0 1.9-1.6 3.5-3.5 3.5h-70.1c-1.9 0-3.5 1.5-3.5 3.4v25c0 1.9 1.6 3.4 3.5 3.4h62.3c2 0 3.5 1.6 3.5 3.5v22.5c0 1.9-1.5 3.5-3.5 3.5h-62.3c-1.9 0-3.5 1.5-3.5 3.5v25.1c0 1.9 1.6 3.5 3.5 3.5h72.5c2 0 3.5 1.5 3.5 3.5v23.5c0 2-1.5 3.5-3.5 3.5h-107c-1.9 0-3.5-1.5-3.5-3.5v-147.7c0-2 1.6-3.5 3.5-3.5h104.6c1.9 0 3.5 1.5 3.5 3.5z"/><path fill-rule="evenodd" class="b" d="m773.1 103.3q22.1 20.3 22.1 56.4 0 36.1-21.6 57.1-21.5 21-65.8 21h-49.4c-2 0-3.5-1.5-3.5-3.5v-147.7c0-2 1.5-3.5 3.5-3.5h51.2q41.4 0 63.5 20.2zm-25.4 92q12.8-11.9 12.8-34.7 0-22.8-12.8-35.1-12.7-12.3-39-12.3h-15.8c-1.9 0-3.5 1.6-3.5 3.5v87.1c0 1.9 1.6 3.5 3.5 3.5h18.4q23.7 0 36.4-12z"/><rect class="a" x="449.9" y="83.1" width="34.5" height="115.9" rx="6.5"></rect><rect class="a" x="449.9" y="209.9" width="34.5" height="28" rx="3.5"></rect><rect class="a" x="237.6" y="121.9" width="34.5" height="115.9" rx="6.5"></rect><rect class="a" x="237.6" y="83.1" width="34.5" height="28" rx="3.5"></rect><path class="b" d="m259.2 267.5v6.2h-14.6v6.8h13.9v6.2h-13.9v12.3h-7v-31.5z"/><path fill-rule="evenodd" class="b" d="m284.4 299h-6.4v-2.9q-2.6 3.2-6.4 3.2-3.9 0-6.5-2.2-2.6-2.2-2.6-5.9 0-3.7 2.7-5.6 2.7-1.8 7.4-1.8h5v-0.2q0-3.8-4.1-3.8-1.7 0-3.7 0.7-2 0.7-3.3 1.7l-3-4.4q4.7-3.4 10.9-3.4 4.4 0 7.2 2.2 2.8 2.2 2.8 6.9zm-6.8-9.2v-1.2h-4.3q-4 0-4 2.6 0 1.3 1 2 0.9 0.7 2.7 0.7 1.8 0 3.2-1.1 1.4-1.1 1.4-3z"/><path class="b" d="m302.1 293.4q3.4 0 6.1-3.4l4 4.5q-4.7 4.8-10.1 4.8-5.4 0-9.2-3.4-3.8-3.4-3.8-9 0-5.6 3.8-9 3.8-3.5 9.1-3.5 2.6 0 5.3 1 2.6 1.1 4.7 3.2l-3.6 4.6q-1.1-1.4-2.8-2.1-1.7-0.8-3.4-0.8-2.6 0-4.5 1.7-1.9 1.8-1.9 4.9 0 3 1.9 4.7 1.9 1.8 4.4 1.8z"/><path class="b" d="m317.3 271.7q-1.2-1.2-1.2-2.8 0-1.7 1.2-2.8 1.1-1.2 2.8-1.2 1.7 0 2.8 1.2 1.2 1.1 1.2 2.8 0 1.6-1.2 2.8-1.1 1.1-2.8 1.1-1.7 0-2.8-1.1zm6.2 27.3h-6.8v-24.2h6.8z"/><path class="b" d="m336.6 299h-6.7v-33.4h6.7z"/><path class="b" d="m343.6 271.7q-1.2-1.2-1.2-2.8 0-1.7 1.2-2.8 1.1-1.2 2.8-1.2 1.7 0 2.8 1.2 1.2 1.1 1.2 2.8 0 1.6-1.2 2.8-1.1 1.1-2.8 1.1-1.7 0-2.8-1.1zm6.2 27.3h-6.8v-24.2h6.8z"/><path class="b" d="m364.2 279.6v10.9q0 1.4 0.7 2.2 0.8 0.8 1.8 0.8 1.8 0 3.2-1.8l2.5 4.8q-3.2 2.8-6.7 2.8-3.5 0-5.9-2.2-2.4-2.3-2.4-6.3v-11.2h-2.8v-4.8h2.8v-7.3h6.8v7.3h5.9v4.8z"/><path fill-rule="evenodd" class="b" d="m396.5 299h-6.3v-2.9q-2.6 3.2-6.5 3.2-3.8 0-6.4-2.2-2.6-2.2-2.6-5.9 0-3.7 2.7-5.6 2.7-1.8 7.4-1.8h5v-0.2q0-3.8-4.1-3.8-1.8 0-3.7 0.7-2 0.7-3.3 1.7l-3-4.4q4.7-3.4 10.9-3.4 4.4 0 7.2 2.2 2.7 2.2 2.7 6.9zm-6.8-9.2v-1.2h-4.2q-4 0-4 2.6 0 1.3 0.9 2 1 0.7 2.8 0.7 1.8 0 3.2-1.1 1.3-1.1 1.3-3z"/><path class="b" d="m409.5 285.5v13.5h-6.8v-24.2h6.8v2.7q3-3.1 6.9-3.1 3.8 0 6.4 2.7 2.6 2.7 2.6 7.2v14.7h-6.8v-13.7q0-5.6-4.1-5.6-2 0-3.5 1.5-1.5 1.4-1.5 4.3z"/><path fill-rule="evenodd" class="b" d="m441.2 299.3q-4.3 0-7.7-3.6-3.4-3.6-3.4-9 0-5.4 3.3-8.9 3.3-3.4 7.7-3.4 4.4 0 7.2 3.1v-11.9h6.8v33.4h-6.8v-3.2q-2.8 3.5-7.1 3.5zm-4.3-12.4q0 2.9 1.8 4.8 1.7 1.9 4.1 1.9 2.3 0 4-1.9 1.6-1.9 1.6-4.8 0-2.9-1.6-4.9-1.7-2-4.1-2-2.4 0-4.1 2-1.7 2-1.7 4.9z"/><path fill-rule="evenodd" class="b" d="m485.7 286.9q0 5.2-3.7 8.8-3.6 3.6-9.1 3.6-5.5 0-9.2-3.6-3.6-3.6-3.6-8.8 0-5.3 3.6-8.9 3.7-3.6 9.2-3.6 5.5 0 9.1 3.6 3.7 3.6 3.7 8.9zm-18.8 0q0 2.9 1.6 4.8 1.7 1.9 4.4 1.9 2.6 0 4.3-1.9 1.7-1.9 1.7-4.8 0-3-1.7-4.9-1.7-1.9-4.3-1.9-2.7 0-4.4 1.9-1.6 1.9-1.6 4.9z"/><path class="b" d="m510.6 279.6v10.9q0 1.4 0.7 2.2 0.8 0.8 1.7 0.8 1.9 0 3.2-1.8l2.6 4.8q-3.2 2.8-6.7 2.8-3.5 0-5.9-2.2-2.4-2.3-2.4-6.3v-11.2h-2.8v-4.8h2.8v-7.3h6.8v7.3h5.9v4.8z"/><path class="b" d="m538 287.8v-13h6.8v24.2h-6.8v-3.2q-2.5 3.5-6.5 3.5-4 0-6.7-2.5-2.7-2.4-2.7-7.4v-14.6h6.8v13.2q0 5.5 4.1 5.5 2 0 3.5-1.4 1.5-1.5 1.5-4.3z"/><path class="a" d="m586.4 267.5v6.3h-15.6v6.5h14v5.9h-14v6.6h16.1v6.2h-23.2v-31.5z"/><path fill-rule="evenodd" class="a" d="m601.7 299.3q-4.3 0-7.7-3.6-3.4-3.6-3.4-9 0-5.4 3.3-8.9 3.3-3.4 7.7-3.4 4.4 0 7.2 3.1v-11.9h6.7v33.4h-6.7v-3.2q-2.8 3.5-7.1 3.5zm-4.3-12.4q0 2.9 1.8 4.8 1.7 1.9 4.1 1.9 2.3 0 3.9-1.9 1.7-1.9 1.7-4.8 0-2.9-1.7-4.9-1.6-2-4-2-2.4 0-4.1 2-1.7 2-1.7 4.9z"/><path class="a" d="m637.6 287.8v-13h6.8v24.2h-6.8v-3.2q-2.6 3.5-6.5 3.5-4 0-6.7-2.5-2.7-2.4-2.7-7.4v-14.6h6.8v13.2q0 5.5 4.1 5.5 2 0 3.5-1.4 1.5-1.5 1.5-4.3z"/><path class="a" d="m662.4 293.4q3.3 0 6-3.4l4 4.5q-4.6 4.8-10.1 4.8-5.4 0-9.2-3.4-3.7-3.4-3.7-9 0-5.6 3.8-9 3.8-3.5 9-3.5 2.6 0 5.3 1 2.7 1.1 4.7 3.2l-3.5 4.6q-1.2-1.4-2.9-2.1-1.7-0.8-3.3-0.8-2.7 0-4.6 1.7-1.9 1.8-1.9 4.9 0 3 1.9 4.7 1.9 1.8 4.5 1.8z"/><path fill-rule="evenodd" class="a" d="m697.5 299h-6.3v-2.9q-2.6 3.2-6.5 3.2-3.8 0-6.4-2.2-2.7-2.2-2.7-5.9 0-3.7 2.7-5.6 2.7-1.8 7.4-1.8h5.1v-0.2q0-3.8-4.1-3.8-1.8 0-3.7 0.7-2 0.7-3.3 1.7l-3.1-4.4q4.8-3.4 10.9-3.4 4.4 0 7.2 2.2 2.8 2.2 2.8 6.9zm-6.8-9.2v-1.2h-4.2q-4.1 0-4.1 2.6 0 1.3 1 2 1 0.7 2.8 0.7 1.8 0 3.2-1.1 1.3-1.1 1.3-3z"/><path class="a" d="m715.3 293.4q3.4 0 6.1-3.4l4 4.5q-4.7 4.8-10.1 4.8-5.5 0-9.2-3.4-3.8-3.4-3.8-9 0-5.6 3.8-9 3.8-3.5 9-3.5 2.6 0 5.3 1 2.7 1.1 4.7 3.2l-3.5 4.6q-1.2-1.4-2.9-2.1-1.6-0.8-3.3-0.8-2.7 0-4.6 1.7-1.9 1.8-1.9 4.9 0 3 1.9 4.7 1.9 1.8 4.5 1.8z"/><path class="a" d="m730.5 271.7q-1.2-1.2-1.2-2.8 0-1.7 1.2-2.8 1.1-1.2 2.8-1.2 1.6 0 2.8 1.2 1.1 1.1 1.1 2.8 0 1.6-1.1 2.8-1.2 1.1-2.8 1.1-1.7 0-2.8-1.1zm6.1 27.3h-6.7v-24.2h6.7z"/><path fill-rule="evenodd" class="a" d="m767.3 286.9q0 5.2-3.7 8.8-3.6 3.6-9.2 3.6-5.5 0-9.1-3.6-3.7-3.6-3.7-8.8 0-5.3 3.7-8.9 3.6-3.6 9.1-3.6 5.6 0 9.2 3.6 3.7 3.6 3.7 8.9zm-18.9 0q0 2.9 1.7 4.8 1.7 1.9 4.3 1.9 2.7 0 4.4-1.9 1.7-1.9 1.7-4.8 0-3-1.7-4.9-1.7-1.9-4.4-1.9-2.6 0-4.3 1.9-1.7 1.9-1.7 4.9zm8.6-15.4h-6.4l5.7-8 6.9 2.9z"/><path class="a" d="m779 285.5v13.5h-6.8v-24.2h6.8v2.7q3-3.1 6.8-3.1 3.9 0 6.5 2.7 2.5 2.7 2.5 7.2v14.7h-6.7v-13.7q0-5.6-4.1-5.6-2 0-3.5 1.5-1.5 1.4-1.5 4.3z"/><path fill-rule="evenodd" class="b" d="m182.6 258.8c-1.2 7.4-6 12-11 16.8l-17.5 16.5c-9.8 9.3-29.8 27.6-30 27.8-1.3 1.3-2.7 2.5-4.3 3.6-10.4 7.7-21.4 11.6-32.8 11.6-3.4 0-6.9-0.3-10.3-1-33.4-6.6-59.6-43-66.9-54q-0.6-0.9-1.1-1.8c-0.5-0.7-0.8-1.1-0.9-1.3l-0.3-0.6 0.1-0.1c-3.4-6.7-4.4-14.6-3-23.6 1.2-7.8 3-15.6 4.8-23.2 0.8-3.5 1.7-7.2 2.4-10.7q0.8-3.6 1.6-7.2c1.8-7.4 3.5-15 4.2-22.6 0.8-9.3-0.6-18.5-4-26.6-1.6-3.7-3.4-7.3-5.2-10.9-2.7-5.4-5.5-10.9-7.5-16.7-2.6-7.9 0.3-15.9 7.6-20.3 7.5-4.5 17.2-5.3 24.7-2 8.2 3.7 12.9 10.9 17.5 17.8l0.5 0.7c8.8 13.4 15 26.2 18.7 39.2l5-4.7c9-8.6 18.3-17.4 27.5-26q9.4-8.7 18.8-17.3 2.6-2.4 5.1-4.8c4.4-4.2 8.9-8.6 13.9-12 6.1-4.2 13.2-5.8 19.9-4.4 6.4 1.3 12.4 5.9 16.1 12.4 3.5 6 3.9 13.4 1.3 19.8-2.8 6.8-8.2 11.7-13.3 16.4q-1.1 0.9-2.1 1.9-12.1 11.1-24.3 22.3l-7.6 7c3.6 2 7.8 4.9 10.6 9.3 3.2 5 3.2 11.1 2.9 15.5 4.7 1.5 11 4 14.9 9.6 3 4.1 4.3 9.5 4.2 16.7 5.7 1 10.2 3.2 13.5 6.9 4.8 5.3 7.3 13.2 6.3 20zm-64.8 51.9c10.5-9.6 20.8-19.4 28.6-26.8l14.7-13.9c0.8-0.8 1.7-1.5 2.6-2.3 3.3-2.9 7-6.1 7.7-10.2 0.7-3.6-0.7-8.2-3.4-11.1-3-3.3-7-3.6-11.3-3.8-1.5 0-3-0.7-4-1.9-1-1.2-1.5-2.6-1.4-4 0.2-2.3 0.3-4.1 0.3-5.7q0-1.3-0.1-2.6c0-0.3 0-0.4 0-0.5l-0.1-0.7c-0.2-1-0.4-2.3-0.8-3.5q0 0 0 0c0 0-0.1-0.3-0.3-0.5-0.1-0.3-0.2-0.5-0.2-0.6q-0.1-0.2-0.2-0.4l-0.4-0.6c0 0-0.1-0.2-0.3-0.3-0.2-0.3-0.4-0.6-0.6-0.7q-0.2-0.2-0.4-0.4l-0.3-0.3q-1.5-1.1-3.2-2c-0.1 0-0.3-0.1-0.6-0.2-0.2-0.1-0.5-0.3-0.6-0.3q-1.2-0.5-2.4-0.9c-1.5-0.5-3.1-0.9-5.1-1.5-2.4-0.5-4.3-3.3-4-5.6 0.5-3.4 0.7-6.3 0.6-9.2q-0.1-0.4-0.2-0.8-0.1-0.5-0.2-1.1l-0.1-0.6q-0.1-0.2-0.1-0.3 0-0.1-0.1-0.2-0.3-0.7-0.7-1.3l-0.1-0.2q0-0.1-0.1-0.2-0.2-0.2-0.3-0.4-0.6-0.7-1.2-1.3-0.3-0.2-0.5-0.5l-0.2-0.1q-0.8-0.6-1.7-1.2c-2.8-1.9-6-3.5-8.4-4.6-2-0.9-3.4-2.7-3.7-4.7-0.3-1.8 0.3-3.4 1.7-4.7l13.3-12.3q13-11.9 25.9-23.8 1-1 2.1-1.9c4.1-3.6 8.2-7.3 9.6-12.5 1.1-4.3-0.4-8.8-4.1-12.3-3.3-3.2-7.5-4.2-12-3-4.8 1.4-8.7 5.1-12.5 8.8q-1.3 1.3-2.7 2.6c-23.7 21.8-46.6 43.3-65.7 61.5-1.5 1.3-3.6 1.8-5.6 1.2-2-0.7-3.3-2.2-3.7-4.1-3.1-15.8-10-31.1-21.7-48.4-3.6-5.3-7.3-10.8-13.9-11.9q-1.2-0.2-2.4-0.2c-2.6 0-5 0.7-6.7 1.3-1.6 0.6-2.8 1.3-3.7 2.1-0.6 0.5-0.7 0.6-1 1-0.3 0.4-0.4 0.7-0.5 0.8-0.8 1.9 0.3 4.9 1.2 7 1.7 3.6 3.5 7.5 5.8 12.3l0.9 2c3.5 7.4 7.2 15.2 8.7 23.6 1.5 8.4 1.3 17.3-0.6 27.1-2 9.9-4.1 19.9-6 28.4q-0.9 4.2-1.9 8.4c-1.5 6-3 12.2-3.8 18.4-1.1 7.5-0.4 13.1 2 17.6 0.2 0.4 0.7 1.1 1.4 2.2l0.2 0.2q0.4 0.5 0.6 1c6.7 9.8 30.8 42.5 59 48 9.9 2 19.6 0.3 28.8-5 1.1-0.5 1.9-1.1 2.8-1.7 1.5-1.1 2.6-1.9 3.4-2.5 2.1-1.5 2.2-1.5 3.9-3.2zm30.7-91.2q0 0 0 0z"/><path class="a" d="m176.6 54.4l-0.3 7c0 0.8-0.7 1.4-1.4 1.3l-37.3-1.4c-0.7 0-1.3-0.7-1.2-1.4l0.2-7c0.1-0.7 0.7-1.3 1.4-1.3l37.3 1.4c0.7 0 1.3 0.7 1.3 1.4z"/><path class="a" d="m134 49l-4.7-5.1c-0.5-0.5-0.5-1.4 0.1-1.9l27.4-25.2c0.5-0.5 1.4-0.5 1.9 0.1l4.7 5.1c0.5 0.6 0.5 1.4 0 1.9l-27.5 25.3c-0.5 0.5-1.4 0.4-1.9-0.2z"/><path class="a" d="m128.4 2.1l-1.4 37.3c0 0.7-0.7 1.3-1.5 1.3l-6.9-0.3c-0.8 0-1.4-0.6-1.3-1.4l1.4-37.2c0-0.8 0.7-1.3 1.4-1.3l7 0.3c0.7 0 1.3 0.6 1.3 1.3z"/><path class="a" d="m99.7 103.2l19.5-17.8c0.7-0.8 2.1-0.6 2.9 0.4l5.8 6.2c0.9 1 0.9 2.3 0.2 3l-33.8 31.1c-0.8 0.7-2.1 0.5-2.9-0.4l-5-5.4c-0.4-0.4-0.6-0.9-0.7-1.4l-7.4-49.7c-0.3-1.8-2.5-2.9-3.7-1.8l-18.1 16.7c-0.7 0.7-2.1 0.5-2.9-0.4l-5.8-6.3c-0.9-0.9-0.9-2.3-0.2-3l32.4-29.8c0.8-0.7 2.1-0.5 3 0.4l4.9 5.4c0.4 0.4 0.6 0.9 0.7 1.4l7.5 49.6c0.3 1.8 2.5 2.9 3.6 1.8z"/><path class="a" d="m86.3 38.9l7.1-6.5c1.2-1.1 3-1 4.1 0.2l31.3 34c1.1 1.2 1 3-0.1 4.1l-7.2 6.6c-1.2 1.1-3 1-4.1-0.2l-31.3-34c-1.1-1.2-1-3.1 0.2-4.2z"/><path class="a" d="m141.2 83l-8.5 7.8c-0.8 0.7-2.1 0.7-2.8-0.1l-5.9-6.4c-0.7-0.8-0.7-2 0.2-2.8l8.5-7.8c0.8-0.7 2-0.7 2.8 0.1l5.8 6.4c0.7 0.8 0.7 2-0.1 2.8z"/><path class="a" d="m88.7 131.3l-7.2 6.5c-1.2 1.1-3 1-4.1-0.1l-31.3-34.1c-1.1-1.2-1-3.1 0.1-4.2l7.2-6.5c1.2-1.1 3-1 4.1 0.2l31.3 34c1.1 1.2 1.1 3.1-0.1 4.2z"/><path class="a" d="m33.7 87.2l8.5-7.8c0.8-0.7 2.1-0.7 2.9 0.1l5.7 6.3c0.8 0.8 0.7 2.1-0.1 2.9l-8.4 7.8c-0.9 0.7-2.1 0.7-2.9-0.2l-5.8-6.3c-0.7-0.8-0.7-2.1 0.1-2.8z"/></svg>